# xmcd
#
# Track frame offsets:
#	150
#	17970
#	37792
#	59501
#	77227
#	92684
#	109740
#	127912
#	142435
#	161767
#	178517
#	195245
#	211415
#	226148
#	247871
#	265583
#	281376
#	297201
#	312110
#	326471
#
# Disc length: 4532 seconds
#
# Revision: 1
# Processed by: cddbd v1.5.2PL0 Copyright (c) Steve Scherf et al.
# Submitted via: audiograbber 1.83.01
#
DISCID=1011b214
DTITLE=Various Artist - Award Winning Country Vol 9
DYEAR=2010
DGENRE=Country
TTITLE0=Carrie Underwood - Cowboy Casanova
TTITLE1=Brad Paisley - Water
TTITLE2=Miranda Lambert - White Liar
TTITLE3=Taylor Swift - Love Story
TTITLE4=Sugarland - Settlin'
TTITLE5=Brooks and Dunn - Proud of The House We Built
TTITLE6=Doc Walker - If I Fall
TTITLE7=Troy Cassar-Daley - Big Big Love
TTITLE8=Feliciity Urquhart - Roller Coaster
TTITLE9=Blake Shelton - Hillbilly Bone
TTITLE10=Johnny Reid - A Woman Like You
TTITLE11=Crystal Shawanda - You Can Let Go
TTITLE12=Amber Lawrence - Don't Do Lonely Well
TTITLE13=Tara Oram - Go To Bed Angry
TTITLE14=Dean Brody - Wildflower
TTITLE15=Mac McAnally - Down By The River
TTITLE16=Jetty Road - Million Miles
TTITLE17=Victoria Baillie - Make Me
TTITLE18=Sara Storer - When I Was A Boy
TTITLE19=Davidson Brothers - Fox On The Freeway
EXTD=
EXTT0=
EXTT1=
EXTT2=
EXTT3=
EXTT4=
EXTT5=
EXTT6=
EXTT7=
EXTT8=
EXTT9=
EXTT10=
EXTT11=
EXTT12=
EXTT13=
EXTT14=
EXTT15=
EXTT16=
EXTT17=
EXTT18=
EXTT19=
PLAYORDER=
